<svg
  width="20"
  height="20"
  viewBox="0 0 20 20"
  fill="none"
  xmlns="http://www.w3.org/2000/svg"
  class="h-5 w-5"
>
  <path
    fill-rule="evenodd"
    clip-rule="evenodd"
    d="M10.0001 4.79181C7.10007 4.79181 4.46115 6.94072 2.84453 8.64163C2.10749 9.4171 2.10749 10.5832 2.84453 11.3587C4.46115 13.0596 7.10007 15.2085 10.0001 15.2085C12.9001 15.2085 15.539 13.0596 17.1556 11.3587C17.8927 10.5832 17.8927 9.4171 17.1556 8.64163C15.539 6.94072 12.9001 4.79181 10.0001 4.79181ZM1.93848 7.78048C3.5815 6.05179 6.5409 3.54181 10.0001 3.54181C13.4593 3.54181 16.4187 6.05179 18.0617 7.78048C19.2573 9.03847 19.2573 10.9618 18.0617 12.2198C16.4187 13.9485 13.4593 16.4585 10.0001 16.4585C6.5409 16.4585 3.5815 13.9485 1.93848 12.2198C0.742838 10.9618 0.742838 9.03847 1.93848 7.78048ZM10.0001 8.12514C8.96455 8.12514 8.12508 8.96461 8.12508 10.0001C8.12508 11.0357 8.96455 11.8751 10.0001 11.8751C11.0356 11.8751 11.8751 11.0357 11.8751 10.0001C11.8751 8.96461 11.0356 8.12514 10.0001 8.12514ZM6.87508 10.0001C6.87508 8.27425 8.27419 6.87514 10.0001 6.87514C11.726 6.87514 13.1251 8.27425 13.1251 10.0001C13.1251 11.726 11.726 13.1251 10.0001 13.1251C8.27419 13.1251 6.87508 11.726 6.87508 10.0001Z"
    fill="currentColor"
  ></path>
</svg>