<svg
  width="116"
  height="36"
  viewBox="0 0 116 36"
  xmlns="http://www.w3.org/2000/svg"
  class="h-10 w-auto text-light-100 sm:text-dark-400"
>
  <path
    d="M46.1995 16.9976C46.1995 22.1443 49.7837 25.0037 53.2329 25.0037C55.727 25.0037 58.2886 23.6571 59.7567 20.9009C59.8242 20.7313 60.03 20.6648 60.165 20.7679L63.3071 22.7528C63.4083 22.8193 63.4792 22.9888 63.4083 23.0886C61.326 27.2944 57.3638 29.2793 53.4017 29.2793C47.4955 29.2793 41.5522 24.9405 41.5522 17.0009C41.5522 9.06132 47.4955 4.72247 53.4017 4.72247C57.3638 4.72247 61.3226 6.70737 63.4083 10.9132C63.4758 11.013 63.4083 11.1825 63.3071 11.249L60.165 13.2339C60.03 13.3337 59.8242 13.2672 59.7567 13.1009C58.2886 10.3414 55.727 8.99815 53.2329 8.99815C49.7533 8.9915 46.1995 11.8841 46.1995 16.9976Z"
    fill="currentColor"
  ></path>
  <path
    d="M65.2207 23.5574C65.2207 28.7041 69.7296 30.556 73.6209 28.099L76.0104 26.5862C76.25 26.4167 76.4559 26.553 76.4559 26.789V28.5046C76.4559 28.6376 76.5909 28.7739 76.7292 28.7739H80.6205C80.7555 28.7739 80.8939 28.6409 80.8939 28.5046V12.2232C80.8939 12.0902 80.7589 11.9539 80.6205 11.9539H76.7292C76.5942 11.9539 76.4559 12.0868 76.4559 12.2232V21.3065C76.4559 24.199 74.6132 25.5788 72.8346 25.5788C71.1943 25.5788 69.6587 24.7376 69.6587 22.1809V12.2232C69.6587 12.0902 69.5237 11.9539 69.3854 11.9539H65.4941C65.3591 11.9539 65.2207 12.0868 65.2207 12.2232V23.5574Z"
    fill="currentColor"
  ></path>
  <path
    d="M84.2419 28.7739H88.1365C88.2715 28.7739 88.4099 28.6409 88.4099 28.5046V5.49379C88.4099 5.3608 88.2749 5.22449 88.1365 5.22449H84.2419C84.1069 5.22449 83.9685 5.3608 83.9685 5.49379V28.5046C83.9685 28.6376 84.1069 28.7739 84.2419 28.7739Z"
    fill="currentColor"
  ></path>
  <path
    d="M103.843 14.4075V12.2198C103.843 12.0868 103.978 11.9505 104.117 11.9505H108.011C108.146 11.9505 108.285 12.0835 108.285 12.2198V35.2307C108.285 35.3637 108.15 35.5 108.011 35.5H104.117C103.982 35.5 103.843 35.367 103.843 35.2307V26.8888C103.843 26.6195 103.536 26.5197 103.33 26.7192C101.93 28.3351 99.9825 29.143 98.3119 29.143C94.5556 29.143 90.7993 26.2172 90.7993 20.4287C90.7993 15.3152 94.2823 11.5815 97.8664 11.5815C98.7203 11.5815 99.8138 11.8508 100.836 12.6587L103.398 14.6104C103.604 14.7434 103.843 14.6436 103.843 14.4075ZM95.4095 20.3955C95.4095 23.0187 97.2859 25.1732 99.7463 25.1732C101.727 25.1732 103.843 23.0886 103.843 20.2292C103.843 17.0341 101.623 15.385 99.78 15.385C97.5931 15.385 95.4095 16.9976 95.4095 20.3955Z"
    fill="currentColor"
  ></path>
  <path
    d="M113.27 9.83268C114.805 9.83268 116 8.68896 116 7.07311C116 5.52709 114.805 4.38336 113.27 4.38336C111.663 4.38336 110.435 5.52709 110.435 7.07311C110.435 8.61914 111.663 9.83268 113.27 9.83268ZM111.289 28.774H115.183C115.318 28.774 115.457 28.641 115.457 28.5047V12.2232C115.457 12.0902 115.322 11.9539 115.183 11.9539H111.289C111.154 11.9539 111.015 12.0869 111.015 12.2232V28.5047C111.015 28.6377 111.15 28.774 111.289 28.774Z"
    fill="currentColor"
  ></path>
  <path
    d="M46.1995 16.9976C46.1995 22.1443 49.7837 25.0037 53.2329 25.0037C55.727 25.0037 58.2886 23.6571 59.7567 20.9009C59.8242 20.7313 60.03 20.6648 60.165 20.7679L63.3071 22.7528C63.4083 22.8193 63.4792 22.9888 63.4083 23.0886C61.326 27.2944 57.3638 29.2793 53.4017 29.2793C47.4955 29.2793 41.5522 24.9405 41.5522 17.0009C41.5522 9.06132 47.4955 4.72247 53.4017 4.72247C57.3638 4.72247 61.3226 6.70737 63.4083 10.9132C63.4758 11.013 63.4083 11.1825 63.3071 11.249L60.165 13.2339C60.03 13.3337 59.8242 13.2672 59.7567 13.1009C58.2886 10.3414 55.727 8.99815 53.2329 8.99815C49.7533 8.9915 46.1995 11.8841 46.1995 16.9976Z"
    fill="currentColor"
  ></path>
  <path
    d="M65.2207 23.5574C65.2207 28.7041 69.7296 30.556 73.6209 28.099L76.0104 26.5862C76.25 26.4167 76.4559 26.553 76.4559 26.789V28.5046C76.4559 28.6376 76.5909 28.7739 76.7292 28.7739H80.6205C80.7555 28.7739 80.8939 28.6409 80.8939 28.5046V12.2232C80.8939 12.0902 80.7589 11.9539 80.6205 11.9539H76.7292C76.5942 11.9539 76.4559 12.0868 76.4559 12.2232V21.3065C76.4559 24.199 74.6132 25.5788 72.8346 25.5788C71.1943 25.5788 69.6587 24.7376 69.6587 22.1809V12.2232C69.6587 12.0902 69.5237 11.9539 69.3854 11.9539H65.4941C65.3591 11.9539 65.2207 12.0868 65.2207 12.2232V23.5574Z"
    fill="currentColor"
  ></path>
  <path
    d="M84.2419 28.7739H88.1365C88.2715 28.7739 88.4099 28.6409 88.4099 28.5046V5.49379C88.4099 5.3608 88.2749 5.22449 88.1365 5.22449H84.2419C84.1069 5.22449 83.9685 5.3608 83.9685 5.49379V28.5046C83.9685 28.6376 84.1069 28.7739 84.2419 28.7739Z"
    fill="currentColor"
  ></path>
  <path
    d="M103.843 14.4075V12.2198C103.843 12.0868 103.978 11.9505 104.117 11.9505H108.011C108.146 11.9505 108.285 12.0835 108.285 12.2198V35.2307C108.285 35.3637 108.15 35.5 108.011 35.5H104.117C103.982 35.5 103.843 35.367 103.843 35.2307V26.8888C103.843 26.6195 103.536 26.5197 103.33 26.7192C101.93 28.3351 99.9825 29.143 98.3119 29.143C94.5556 29.143 90.7993 26.2172 90.7993 20.4287C90.7993 15.3152 94.2823 11.5815 97.8664 11.5815C98.7203 11.5815 99.8138 11.8508 100.836 12.6587L103.398 14.6104C103.604 14.7434 103.843 14.6436 103.843 14.4075ZM95.4095 20.3955C95.4095 23.0187 97.2859 25.1732 99.7463 25.1732C101.727 25.1732 103.843 23.0886 103.843 20.2292C103.843 17.0341 101.623 15.385 99.78 15.385C97.5931 15.385 95.4095 16.9976 95.4095 20.3955Z"
    fill="currentColor"
  ></path>
  <path
    d="M113.27 9.83268C114.805 9.83268 116 8.68896 116 7.07311C116 5.52709 114.805 4.38336 113.27 4.38336C111.663 4.38336 110.435 5.52709 110.435 7.07311C110.435 8.61914 111.663 9.83268 113.27 9.83268ZM111.289 28.774H115.183C115.318 28.774 115.457 28.641 115.457 28.5047V12.2232C115.457 12.0902 115.322 11.9539 115.183 11.9539H111.289C111.154 11.9539 111.015 12.0869 111.015 12.2232V28.5047C111.015 28.6377 111.15 28.774 111.289 28.774Z"
    fill="currentColor"
  ></path>
  <path
    d="M28.1538 25.3029L18.0493 15.3518L14.887 18.261L25.0928 28.3185L31.4883 34.6189L34.5494 31.6034L28.1538 25.3029Z"
    fill="#763383"
  ></path>
  <path
    d="M32.4973 12.6554C30.6039 5.49715 24.0296 0.5 16.5136 0.5C11.2115 0.5 6.19639 3.03681 3.09819 7.28256C1.06986 10.0588 0 13.3403 0 16.7682C0 20.8577 1.52885 24.721 4.3098 27.7233C2.80457 26.051 1.96421 23.9663 1.96421 21.7055C1.96421 19.3249 2.88557 17.1538 4.39754 15.5214C4.61354 13.4467 5.36278 11.4751 6.60813 9.7695C8.89634 6.63423 12.5986 4.76237 16.5136 4.76237C22.062 4.76237 26.9118 8.44956 28.309 13.7326C28.5688 14.7168 28.7005 15.7408 28.7005 16.7715C28.7005 19.3349 27.8939 21.7786 26.365 23.8433L26.4899 23.6704L29.5813 26.7159C31.6535 23.9198 33.0271 20.2459 33.0271 16.7715C33.0271 15.3751 32.8483 13.992 32.4973 12.6554Z"
    fill="#EB6F25"
  ></path>
  <path
    d="M4.74518 28.1821C4.59668 28.0325 4.45156 27.8796 4.30981 27.7233C4.45156 27.8796 4.59331 28.0325 4.74518 28.1821Z"
    fill="#00A19B"
  ></path>
  <path
    d="M26.49 23.6671L26.3652 23.84C25.6058 24.864 24.6912 25.7617 23.6483 26.5064C21.5626 27.9926 19.0955 28.7773 16.5137 28.7773C13.2231 28.7773 10.1385 27.5039 7.82662 25.1931C6.87152 24.2589 6.29103 23.032 6.29103 21.7088C6.29103 18.9858 8.53874 16.7715 11.3028 16.7715C12.6933 16.7715 13.9893 17.3201 14.9444 18.3175L18.0864 15.3884C16.3315 13.5597 13.8576 12.5091 11.3028 12.5091C8.56911 12.5091 6.1054 13.6728 4.39769 15.5247C2.88909 17.1605 1.96436 19.3316 1.96436 21.7088C1.96436 23.9696 2.80472 26.0543 4.30994 27.7266C4.45168 27.8796 4.59681 28.0358 4.7453 28.1854C7.87387 31.3174 12.0554 33.0396 16.5137 33.0396C20.0135 33.0396 23.3581 31.9757 26.1829 29.9609C27.4856 29.0299 28.6027 27.9727 29.5815 26.7159L26.49 23.6671Z"
    fill="#00A19B"
  ></path>
</svg>