<svg width="24" height="24" viewBox="0 0 24 24" fill="none" xmlns="http://www.w3.org/2000/svg" class="h-5 w-5"><path fill-rule="evenodd" clip-rule="evenodd" d="M3.46973 3.46967C3.76262 3.17678 4.2375 3.17678 4.53039 3.46967L20.5304 19.4697C20.8233 19.7626 20.8233 20.2374 20.5304 20.5303C20.2375 20.8232 19.7626 20.8232 19.4697 20.5303L17.1946 18.2552C15.6635 19.1196 13.8983 19.75 12.0001 19.75C7.84904 19.75 4.29777 16.738 2.32614 14.6636C0.891369 13.154 0.891369 10.846 2.32614 9.33641C3.1545 8.46485 4.23637 7.45497 5.50584 6.56644L3.46973 4.53033C3.17684 4.23744 3.17684 3.76256 3.46973 3.46967ZM6.5845 7.6451C5.32909 8.49238 4.24547 9.49433 3.4134 10.3698C2.52895 11.3004 2.52895 12.6996 3.4134 13.6302C5.35334 15.6713 8.52005 18.25 12.0001 18.25C13.4279 18.25 14.81 17.8162 16.0886 17.1492L14.068 15.1286C13.4752 15.521 12.7638 15.75 12.0001 15.75C9.92899 15.75 8.25006 14.0711 8.25006 12C8.25006 11.2362 8.47901 10.5248 8.87143 9.93203L6.5845 7.6451ZM9.9692 11.0298C9.82861 11.3234 9.75006 11.6522 9.75006 12C9.75006 13.2426 10.7574 14.25 12.0001 14.25C12.3478 14.25 12.6766 14.1715 12.9703 14.0309L9.9692 11.0298ZM9.18837 4.69699C10.0802 4.41736 11.0225 4.25 12.0001 4.25C16.1511 4.25 19.7024 7.26198 21.674 9.33641C23.1088 10.846 23.1088 13.154 21.674 14.6636C21.2203 15.1409 20.6921 15.6581 20.1003 16.1734C19.7879 16.4453 19.3142 16.4126 19.0422 16.1002C18.7702 15.7878 18.8029 15.314 19.1153 15.0421C19.6662 14.5624 20.1603 14.0789 20.5867 13.6302C21.4712 12.6996 21.4712 11.3004 20.5867 10.3698C18.6468 8.32869 15.4801 5.75 12.0001 5.75C11.1949 5.75 10.4043 5.88776 9.63715 6.12829C9.24191 6.25221 8.82104 6.03227 8.69712 5.63703C8.57319 5.24179 8.79313 4.82092 9.18837 4.69699Z" fill="currentColor"></path></svg>